
<svg xmlns="http://www.w3.org/2000/svg" data-name="Layer 1" width="890" height="729.78732" viewBox="0 0 890 729.78732" xmlns:xlink="http://www.w3.org/1999/xlink">
  <path d="M374.67742,751.05986c-8.99256-7.59865-14.45479-19.60227-13.02232-31.28789s10.30472-22.42829,21.81332-24.90978,24.62761,4.38768,28.12315,15.62987c1.92376-21.6745,4.14055-44.25714,15.66409-62.715,10.43429-16.71314,28.50667-28.672,48.09305-30.81147s40.20832,5.941,52.42363,21.40027,15.20618,37.93388,6.6509,55.68241c-6.30238,13.07473-17.91358,22.80511-30.07923,30.72127A194.12311,194.12311,0,0,1,445.422,736.901a195.60117,195.60117,0,0,1-70.28079,14.15907" transform="translate(-155 -85.10634)" fill="#f2f2f2"/>
  <path d="M428.05335,733.71351a317.62453,317.62453,0,0,0,44.26411-30.4269,318.55416,318.55416,0,0,0,33.32139-34.14071c1.27511-1.507,3.37687.03363,2.1236,1.51415a321.28461,321.28461,0,0,1-78.33613,66.88316c-1.646,1.012-2.93124-1.55293-1.37297-2.7797Z" transform="translate(-155 -85.10634)" fill="#fff"/>
  <path d="M462.95128,339.06807a15.575,15.575,0,0,0-8.70337-14.09308L244.42977,202.73326a15.51248,15.51248,0,0,0-21.27093,4.91223,15.38017,15.38017,0,0,0-1.96144,7.57556V403.24258a15.54762,15.54762,0,0,0,15.5476,15.32664L448.83983,574.37,462.95128,339.06807Z" transform="translate(-155 -85.10634)" fill="#e6e6e6"/>
  <path d="M263.20659,206.10642a13.8662,13.8662,0,0,0-13.8662,13.6117V403.24258a13.89713,13.89713,0,0,0,13.8662,13.86591l340.70166,1.9087a13.73851,13.73851,0,0,0,9.2489-3.81607,13.41851,13.41851,0,0,0,3.01225-4.19577,13.88368,13.88368,0,0,0,1.624-6.56141l-12.05668-150.26674a13.89715,13.89715,0,0,0-7.93795-12.52688L264.46721,206.66752A13.52802,13.52802,0,0,0,263.20659,206.10642Z" transform="translate(-155 -85.10634)" fill="#fff"/>
  <path d="M598.62226,363.24682a15.26111,15.26111,0,0,0-26.05712-10.93141l-49.70481,53.12438-2.27093,9.02555-48.6641,31.15933-1.21435,9.91868,62.20237-48.66238,11.82682-11.88759Z" transform="translate(-155 -85.10634)" fill="#ffb6b6"/>
  <path d="M496.91449,473.838c-10.63349,4.68514-40.62551,1.45291-48.73132-2.3496l-3.70429-11.11125s-8.80209-13.75239-6.45874-20.16193,6.13518-15.66036,10.28759-16.81109a4.77428,4.77428,0,0,1,4.50559,1.22066s32.31087-8.40366,32.31087-7.43982,9.53569,20.76887,14.11764,36.58628C502.26423,467.228,507.5492,469.15281,496.91449,473.838Z" transform="translate(-155 -85.10634)" fill="#6c63ff"/>
  <polygon points="559.633 652.849 542.81 652.849 534.78 584.305 559.633 584.305 559.633 652.849" fill="#ffb6b6"/>
  <path d="M719.3821,717.09667a9.63972,9.63972,0,0,0,9.618,9.6189h42.53656l.38086-.00146c4.2081-.01808,8.1516-1.16993,11.41833-5.53984a14.86343,14.86343,0,0,0,2.09667-12.8718l-16.51349-69.0564-57.14421,7.37353Z" transform="translate(-155 -85.10634)" fill="#2f2e41"/>
  <polygon points="649.952 640.553 634.383 647.279 602.321 587.12 625.415 577.168 649.952 640.553" fill="#ffb6b6"/>
  <path d="M812.852,713.18161a9.63969,9.63969,0,0,0,7.42916,11.51749l41.25721,10.51463.36676-.1039c4.06184-1.15386,7.46039-3.4438,9.54871-8.51159a14.86343,14.86343,0,0,0-2.14788-12.86,7.4934,7.4934,0,0,0-.42419-.60689l-33.6997-62.5701-54.77152,19.23528Z" transform="translate(-155 -85.10634)" fill="#2f2e41"/>
  <path d="M741.4689,579.55953c1.90661-1.13131,4.76247-4.01782,4.00066-6.4932a4.786,4.786,0,0,0-4.15524-2.94869c-2.7978-.10069-4.80368,2.87559-6.86251,3.91048l15.98941-25.674-3.271,1.57723L730.51415,573.4619c-.41487,2.90944-1.74195,11.24276,1.26479,11.33177,1.53113.04534,4.41582-2.639,6.86251-3.91048l-1.01557,1.633Z" transform="translate(-155 -85.10634)" fill="#2f2e41"/>
  <path d="M798.47948,587.21378c1.90661-1.13131,4.76247-4.01782,4.00066-6.4932a4.786,4.786,0,0,0-4.15524-2.94869c-2.7978-.10069-4.80367,2.87559-6.86251,3.91047l15.98941-25.674-3.271,1.57723-16.64607,23.50339c-.41487,2.90944-1.74195,11.24276,1.26479,11.33177,1.53113.04534,4.41582-2.639,6.86251-3.91047l-1.01556,1.633Z" transform="translate(-155 -85.10634)" fill="#2f2e41"/>
  <path d="M754.76278,419.59376l13.367.5144L778.23177,481.194l-2.57784,84.99871,65.52066,1.71187,1.95739-42.09257s-8.71512-90.64206-24.18086-104.36074l6.81972-14.10649L766.54891,396.26739a31.663,31.663,0,0,0-11.78613,23.32637Z" transform="translate(-155 -85.10634)" fill="#2f2e41"/>
  <path d="M687.58614,517.141a11.40049,11.40049,0,0,0,2.31106-17.331l.26041-17.99673-22.357,10.40113,3.40042,15.09074a11.46292,11.46292,0,0,0,16.38513,9.83584Z" transform="translate(-155 -85.10634)" fill="#ffb6b6"/>
  <path d="M691.1356,412.59634h-5.67365s-86.54985-1.9051-80.73377,71.8778c1.32941,16.86914,1.4411,29.51983,3.06371,38.9526,2.23516,12.94909,7.72448,24.10795,16.7134,31.4918l74.49854,61.29927s1.90494-20.95416-15.23892-34.76037l-41.97332-30.684,4.74-52.122L675.898,438.82508Z" transform="translate(-155 -85.10634)" fill="#6c63ff"/>
  <circle cx="615.49467" cy="309.13602" r="33.99805" fill="#2f2e41"/>
  <circle cx="615.49467" cy="321.9109" r="22.99792" fill="#ffb7b7"/>
  <polygon points="597.681 315.778 593.292 336.493 609.711 345.67 615.495 323.308 597.681 315.778" fill="#ffb7b7"/>
  <path d="M760.20576,431.999l6.29118-23.57326L786.044,423.26658l42.9968-22.87425,4.76875,9.53749-29.80618,39.343-6.42621,3.17357-33.32142,5.55431Z" transform="translate(-155 -85.10634)" fill="#2f2e41"/>
  <path d="M754.66086,428.43614l-1.46148-12.84l-10.05231-16.27343-.22265-.36047c-4.80125-7.77543-12.65747-8.68592-15.17856-8.81958l-.1408-.00724-.12305.06708c-9.41748,5.11162-18.46119,18.31347-17.987,36.64111a.61032.61032,0,0,0,.61972.59229h43.79077a.60976.60976,0,0,0,.60975-.60976A.5839.5839,0,0,0,754.66086,428.43614Z" transform="translate(-155 -85.10634)" fill="#2f2e41"/>
  <path d="M794.50291,386.93109c0,10.95581-10.16151,19.84-22.69319,19.84s-18.99-8.88416-18.99-19.84c0-8.83786,9.62848-12.312,18.99-13.27571a25.29735,25.29735,0,0,1,3.7642-.25125C783.75757,372.96128,794.50291,375.9753,794.50291,386.93109Z" transform="translate(-155 -85.10634)" fill="#2f2e41"/>
  <path d="M705.05807,500.34652a15.26113,15.26113,0,0,0-2.5374-27.77049l2.45459-72.29412-21.66894,7.29937,1.68728,71.252a15.32878,15.32878,0,0,0,20.06447,21.51326Z" transform="translate(-155 -85.10634)" fill="#ffb6b6"/>
  <path d="M671.57909,413.43024l31.77033-9.53109a14.41947,14.41947,0,0,1,18.2873,13.65l2.20894,73.5001-42.38,12.00276Z" transform="translate(-155 -85.10634)" fill="#6c63ff"/>
  <polygon points="204.101 729.787 0 729.787 0 727.71 203.401 727.71 204.101 729.787" fill="#f2f2f2"/>
</svg>
